<svg width="1152" height="291" viewBox="0 0 1152 291" fill="none" xmlns="http://www.w3.org/2000/svg">
<path d="M13.0228 107.552H8.87364C7.98379 107.552 7.11979 107.253 6.42046 106.703C3.81782 104.655 0 106.509 0 109.82V643.5C0 645.709 1.79086 647.5 4 647.5H1148C1150.21 647.5 1152 645.709 1152 643.5V62.3474C1152 61.0861 1151.41 59.8987 1150.39 59.1435L1143.65 54.101C1141.55 52.5325 1138.54 53.3711 1137.55 55.798L1131.91 69.6726C1131.11 71.6192 1128.95 72.6213 1126.95 71.9666L1112.25 67.1447C1111.44 66.8793 1110.56 66.8793 1109.75 67.1447L1108.14 67.6753C1107.09 68.0176 1105.95 67.9153 1104.99 67.3926L1099.21 64.266C1097.63 63.4147 1095.68 63.7919 1094.53 65.1674C1093.16 66.8219 1090.67 66.9836 1089.09 65.5217L1084 60.8062C1083.67 60.4998 1083.29 60.2517 1082.88 60.0722L1070.19 54.5693C1068.16 53.6861 1065.79 54.6287 1064.92 56.6699L1061.39 64.9611C1060.59 66.8177 1058.54 67.7937 1056.6 67.2371L1049.57 65.219C1048.63 64.9489 1047.62 65.2966 1047.04 66.089C1046.22 67.2182 1044.6 67.3776 1043.57 66.4296L1039.19 62.3663C1037.89 61.1658 1035.96 60.9586 1034.44 61.8568L1032.56 62.9638C1030.81 63.9936 1028.57 63.5557 1027.35 61.9444L1020.2 52.5745C1019.44 51.5823 1018.27 51 1017.02 51H1011.02C1009.23 51 1007.66 52.1857 1007.17 53.9048L998.327 84.977C997.838 86.696 996.267 87.8817 994.48 87.8817H992.143C990.54 87.8817 989.092 88.8385 988.463 90.3128L984.516 99.5709C983.67 101.554 981.406 102.51 979.395 101.733L970.95 98.4703C969.729 97.9983 968.353 98.1543 967.268 98.8879L963.059 101.734C961.798 102.586 960.163 102.649 958.84 101.896L953.384 98.7895C952.209 98.1204 950.775 98.0903 949.573 98.7097L941.862 102.682C941.296 102.974 940.667 103.126 940.03 103.126H933.913C932.177 103.126 930.639 104.246 930.106 105.899L925.675 119.642C925.018 121.681 922.872 122.84 920.806 122.271L912.634 120.02C912.214 119.905 911.816 119.721 911.455 119.478L905.379 115.369C904.496 114.772 903.412 114.552 902.367 114.758L896.903 115.833C895.178 116.172 893.434 115.345 892.604 113.795L885.131 99.8295C884.435 98.5288 883.079 97.7168 881.604 97.7168H879.256C877.596 97.7168 876.109 98.7413 875.518 100.292L869.097 117.134C868.246 119.365 865.641 120.359 863.52 119.261L859.47 117.165C858.529 116.677 857.432 116.584 856.422 116.904L843.825 120.901C842.967 121.173 842.042 121.148 841.2 120.829L830.184 116.662C829.732 116.491 829.252 116.404 828.769 116.404H823.722C823.244 116.404 822.771 116.318 822.324 116.151L810.774 111.843C809.377 111.321 807.805 111.621 806.697 112.619L804.275 114.803C803.182 115.789 801.636 116.094 800.25 115.599L798.661 115.03C797.603 114.652 796.434 114.736 795.442 115.262L784.671 120.966C784.228 121.201 783.744 121.35 783.246 121.406L768.643 123.047C767.305 123.198 765.982 122.665 765.121 121.63L757.739 112.757C755.704 110.311 751.766 111.105 750.838 114.148L746.817 127.33C746.117 129.626 743.567 130.792 741.372 129.821L736.51 127.669C735.849 127.377 735.121 127.269 734.403 127.357L576.823 146.73C575.964 146.835 575.094 146.66 574.344 146.229L566.004 141.445C564.509 140.587 562.633 140.783 561.348 141.932L559.887 143.238C558.735 144.268 557.092 144.543 555.667 143.942L551.745 142.289C551.253 142.082 550.725 141.975 550.191 141.975H541.539C540.258 141.975 539.055 141.362 538.302 140.325L534.155 134.615C532.935 132.936 530.635 132.468 528.857 133.537L524.795 135.978C523.671 136.654 522.287 136.736 521.091 136.197L512.739 132.432C511.639 131.936 510.374 131.963 509.296 132.506L493.205 140.612C491.605 141.418 489.664 141.062 488.455 139.74L487.915 139.15C486.768 137.897 484.954 137.505 483.392 138.173L476.404 141.161C475.21 141.671 473.842 141.571 472.736 140.891L467.464 137.65C466.834 137.262 466.108 137.057 465.369 137.057H460.049C458.494 137.057 457.08 136.156 456.423 134.747L453.273 127.987C452.519 126.37 450.785 125.447 449.023 125.726L425.653 129.42C424.595 129.587 423.515 129.323 422.654 128.688L419.78 126.568C418.672 125.751 417.222 125.561 415.941 126.065L414.006 126.826C413.347 127.086 412.631 127.165 411.932 127.057L389.484 123.594C388.235 123.402 386.969 123.81 386.069 124.696L384.471 126.267C382.674 128.035 379.71 127.72 378.324 125.614L376.891 123.436C376.042 122.144 374.524 121.458 372.993 121.673L365 122.796C363.001 123.077 361.106 121.824 360.581 119.875L353.527 93.6661C352.958 91.5506 350.793 90.2867 348.671 90.8312L332.313 95.0282C330.635 95.4585 328.871 94.7606 327.943 93.299L326.041 90.3066C325.12 88.8576 323.377 88.1578 321.71 88.5677L318.205 89.4296C317.118 89.6967 315.97 89.4966 315.037 88.8777L298.371 77.8133C297.209 77.0419 295.729 76.9315 294.465 77.5218L277.523 85.437C276.854 85.7493 276.112 85.8706 275.379 85.7874L266.975 84.8338C264.985 84.6079 263.135 85.8887 262.645 87.8307L249.641 139.43C249.252 140.975 247.982 142.142 246.41 142.399L238.594 143.681C237.571 143.848 236.654 144.406 236.034 145.237L233.438 148.72C232.308 150.234 230.272 150.752 228.556 149.961L216.984 144.626C216.033 144.187 214.948 144.139 213.962 144.492L205.682 147.453C204.913 147.728 204.077 147.761 203.288 147.547L191.309 144.297C190.46 144.067 189.559 144.123 188.745 144.456L175.88 149.728C173.767 150.594 171.36 149.519 170.594 147.368L166.568 136.054C165.795 133.881 163.125 133.097 161.3 134.508C159.598 135.823 157.117 135.242 156.176 133.307L150.836 122.325C149.336 119.241 144.905 119.351 143.559 122.506L141.68 126.912C140.981 128.552 139.282 129.531 137.513 129.314L122.613 127.482C121.292 127.32 120.138 126.511 119.535 125.325L119.183 124.632C118.743 123.766 118.002 123.09 117.099 122.73L100.713 116.196C100.242 116.008 99.7393 115.912 99.232 115.912H92.9467C92.0119 115.912 91.1066 115.584 90.388 114.986L87.5526 112.627C86.0726 111.395 83.9253 111.393 82.4424 112.621L77.3479 116.84C76.2105 117.782 74.6464 118.021 73.2797 117.461L72.1219 116.986C70.551 116.342 68.745 116.76 67.6166 118.029L58.794 127.945C57.0996 129.85 54.08 129.705 52.576 127.647L47.6312 120.881C45.9234 118.544 42.3758 118.738 40.9336 121.248L39.9029 123.041C38.6545 125.213 35.7391 125.716 33.835 124.088L15.6226 108.512C14.8981 107.892 13.9761 107.552 13.0228 107.552Z" fill="url(#paint0_linear)"/>
<g filter="url(#filter0_dd)">
<path d="M0 101.651L6.41156 106.696C7.11665 107.25 7.98778 107.552 8.88497 107.552H13.0228C13.9761 107.552 14.8981 107.892 15.6226 108.512L33.835 124.088C35.7391 125.716 38.6545 125.213 39.9029 123.041L40.9336 121.248C42.3758 118.738 45.9234 118.544 47.6312 120.881L52.576 127.647C54.08 129.705 57.0996 129.85 58.794 127.945L67.6166 118.029C68.745 116.76 70.551 116.343 72.1219 116.986L73.2797 117.461C74.6464 118.021 76.2105 117.782 77.3479 116.84L82.4424 112.621C83.9253 111.393 86.0726 111.395 87.5526 112.627L90.388 114.986C91.1066 115.584 92.0119 115.912 92.9467 115.912H99.232C99.7394 115.912 100.242 116.008 100.713 116.196L117.099 122.73C118.002 123.09 118.743 123.766 119.183 124.632L119.535 125.325C120.138 126.511 121.292 127.32 122.613 127.482L137.513 129.314C139.282 129.531 140.981 128.552 141.68 126.912L143.559 122.506C144.905 119.351 149.336 119.241 150.836 122.325L156.176 133.307C157.117 135.242 159.598 135.823 161.3 134.508V134.508C163.125 133.097 165.795 133.881 166.568 136.054L170.594 147.368C171.36 149.519 173.767 150.594 175.88 149.728L188.745 144.456C189.559 144.123 190.46 144.067 191.309 144.297L203.288 147.547C204.077 147.761 204.913 147.728 205.682 147.453L213.962 144.492C214.948 144.139 216.033 144.187 216.984 144.626L228.556 149.961C230.272 150.752 232.308 150.234 233.438 148.72L236.034 145.237C236.654 144.406 237.571 143.848 238.594 143.681L246.41 142.399C247.982 142.142 249.252 140.975 249.641 139.43L262.645 87.8307C263.135 85.8887 264.985 84.6079 266.975 84.8338L275.379 85.7874C276.112 85.8706 276.854 85.7493 277.523 85.437L294.465 77.5218C295.729 76.9315 297.209 77.0419 298.371 77.8133L315.037 88.8777C315.97 89.4966 317.118 89.6967 318.205 89.4296L321.71 88.5677C323.377 88.1578 325.12 88.8576 326.041 90.3066L327.943 93.299C328.871 94.7606 330.635 95.4585 332.313 95.0282L348.671 90.8312C350.793 90.2867 352.958 91.5506 353.527 93.6661L360.581 119.875C361.106 121.824 363.001 123.077 365 122.796L372.993 121.673C374.524 121.458 376.042 122.144 376.891 123.436L378.324 125.614C379.71 127.72 382.674 128.035 384.471 126.267L386.069 124.696C386.969 123.81 388.235 123.402 389.484 123.594L411.932 127.057C412.631 127.165 413.347 127.086 414.006 126.826L415.941 126.065C417.222 125.561 418.672 125.751 419.78 126.568L422.654 128.688C423.515 129.323 424.595 129.587 425.653 129.42L449.023 125.726C450.785 125.447 452.519 126.37 453.273 127.987L456.423 134.747C457.08 136.156 458.494 137.057 460.049 137.057H465.369C466.108 137.057 466.834 137.262 467.464 137.65L472.736 140.891C473.842 141.571 475.21 141.671 476.404 141.161L483.392 138.173C484.954 137.505 486.768 137.897 487.915 139.15L488.455 139.74C489.664 141.062 491.605 141.418 493.205 140.612L509.296 132.506C510.374 131.963 511.639 131.936 512.739 132.432L521.091 136.197C522.287 136.736 523.671 136.654 524.795 135.978L528.857 133.537C530.636 132.468 532.936 132.936 534.155 134.615L538.302 140.325C539.055 141.362 540.258 141.975 541.539 141.975H550.191C550.725 141.975 551.253 142.082 551.745 142.289L555.667 143.942C557.092 144.543 558.735 144.268 559.887 143.238L561.348 141.932C562.633 140.783 564.509 140.587 566.004 141.445L574.344 146.229C575.094 146.66 575.964 146.835 576.823 146.73L734.403 127.357C735.121 127.269 735.849 127.377 736.51 127.669L741.372 129.821C743.567 130.792 746.117 129.626 746.817 127.33L750.838 114.148C751.766 111.105 755.704 110.311 757.739 112.757L765.121 121.63C765.982 122.665 767.305 123.198 768.643 123.047L783.246 121.406C783.744 121.35 784.228 121.201 784.671 120.966L795.442 115.262C796.434 114.736 797.603 114.652 798.661 115.03L800.25 115.599C801.636 116.094 803.182 115.789 804.275 114.803L806.697 112.619C807.805 111.621 809.377 111.321 810.774 111.843L822.324 116.151C822.771 116.318 823.244 116.404 823.722 116.404H828.769C829.252 116.404 829.732 116.491 830.184 116.662L841.2 120.829C842.042 121.148 842.967 121.173 843.825 120.901L856.422 116.904C857.432 116.584 858.529 116.677 859.47 117.165L863.52 119.261C865.641 120.359 868.246 119.365 869.097 117.134L875.518 100.292C876.109 98.7413 877.596 97.7168 879.256 97.7168H881.604C883.079 97.7168 884.435 98.5288 885.131 99.8295L892.604 113.795C893.434 115.345 895.178 116.172 896.903 115.833L902.367 114.758C903.412 114.552 904.496 114.772 905.379 115.369L911.455 119.478C911.816 119.721 912.214 119.905 912.634 120.02L920.806 122.271C922.872 122.84 925.018 121.681 925.676 119.642L930.106 105.899C930.639 104.246 932.177 103.126 933.913 103.126H940.03C940.668 103.126 941.296 102.974 941.862 102.682L949.573 98.7097C950.775 98.0903 952.209 98.1204 953.384 98.7895L958.84 101.896C960.163 102.649 961.798 102.586 963.059 101.734L967.268 98.8879C968.353 98.1543 969.728 97.9983 970.95 98.4703L979.395 101.733C981.406 102.51 983.67 101.554 984.516 99.5709L988.463 90.3128C989.092 88.8385 990.54 87.8817 992.143 87.8817H994.48C996.267 87.8817 997.838 86.696 998.327 84.977L1007.17 53.9048C1007.66 52.1857 1009.23 51 1011.02 51H1017.02C1018.27 51 1019.44 51.5823 1020.2 52.5745L1027.35 61.9444C1028.57 63.5557 1030.81 63.9936 1032.56 62.9638L1034.44 61.8568C1035.96 60.9586 1037.89 61.1658 1039.19 62.3663L1043.58 66.4296C1044.6 67.3776 1046.22 67.2182 1047.04 66.089V66.089C1047.62 65.2966 1048.63 64.9489 1049.57 65.219L1056.6 67.2371C1058.54 67.7937 1060.59 66.8177 1061.39 64.9611L1064.92 56.6699C1065.79 54.6287 1068.16 53.6861 1070.19 54.5693L1082.87 60.0722C1083.29 60.2517 1083.67 60.4998 1084 60.8062L1089.09 65.5217C1090.67 66.9836 1093.16 66.8219 1094.53 65.1674V65.1674C1095.68 63.7919 1097.63 63.4147 1099.21 64.266L1104.99 67.3926C1105.95 67.9153 1107.09 68.0176 1108.14 67.6753L1109.75 67.1447C1110.56 66.8793 1111.44 66.8793 1112.25 67.1447L1126.95 71.9666C1128.95 72.6213 1131.11 71.6192 1131.91 69.6726L1137.55 55.798C1138.54 53.3711 1141.55 52.5325 1143.65 54.101L1152 60.3434" stroke="#00E2DF" stroke-width="2"/>
</g>
<defs>
<filter id="filter0_dd" x="-50.6184" y="0" width="1253.22" height="201.329" filterUnits="userSpaceOnUse" color-interpolation-filters="sRGB">
<feFlood flood-opacity="0" result="BackgroundImageFix"/>
<feColorMatrix in="SourceAlpha" type="matrix" values="0 0 0 0 0 0 0 0 0 0 0 0 0 0 0 0 0 0 127 0"/>
<feOffset/>
<feGaussianBlur stdDeviation="25"/>
<feColorMatrix type="matrix" values="0 0 0 0 1 0 0 0 0 1 0 0 0 0 1 0 0 0 1 0"/>
<feBlend mode="normal" in2="BackgroundImageFix" result="effect1_dropShadow"/>
<feColorMatrix in="SourceAlpha" type="matrix" values="0 0 0 0 0 0 0 0 0 0 0 0 0 0 0 0 0 0 127 0"/>
<feOffset/>
<feGaussianBlur stdDeviation="10"/>
<feColorMatrix type="matrix" values="0 0 0 0 0 0 0 0 0 0.886275 0 0 0 0 0.87451 0 0 0 0.5 0"/>
<feBlend mode="normal" in2="effect1_dropShadow" result="effect2_dropShadow"/>
<feBlend mode="normal" in="SourceGraphic" in2="effect2_dropShadow" result="shape"/>
</filter>
</defs>
</svg>
